<?xml version="1.0" standalone="no"?><!DOCTYPE svg PUBLIC "-//W3C//DTD SVG 1.1//EN" "http://www.w3.org/Graphics/SVG/1.1/DTD/svg11.dtd"><svg t="1551366379838" class="icon" style="" viewBox="0 0 1024 1024" version="1.1" xmlns="http://www.w3.org/2000/svg" p-id="2249" xmlns:xlink="http://www.w3.org/1999/xlink" width="200" height="200"><defs><style type="text/css"></style></defs><path d="M840.2 554h-49.1c0-162.7-126.3-294.9-281.8-294.9-155.3 0-281.8 132.2-281.8 294.9h-49.1c0-189.7 148.4-344 330.9-344s330.9 154.3 330.9 344z" fill="#CBE4FE" p-id="2250"></path><path d="M815.6 522.2c0-176.4-137.1-319.4-306.3-319.4-169.2 0-306.3 143-306.3 319.4 0 0-13.9 4.9-27.5 4.4s-27.3 7.7-27.3 7.7l-0.3-18.5c0-208.1 161.8-377 361.5-377 199.6 0 361.5 168.7 361.5 377l0.3 11.5-36 1.8-19.6-6.9z" fill="#FFFFFF" p-id="2251"></path><path d="M132.4 562.8l-1-47c0-104.9 39.3-203.6 110.5-277.9 71.3-74.5 166.4-115.5 267.4-115.5 101.1 0 196 41.1 267.4 115.5C847.9 312 887 410.7 887.2 515.6l0.8 27.2-55.3 2.8-33.4-11.6v-11.8c0-167.1-130.1-303.1-290-303.1s-289.8 136-289.8 303.1v11.6l-11 3.9c-1.8 0.7-17.3 5.9-33.5 5.2-7.2-0.3-16.2 4.1-18.2 5.2l-24.4 14.7z m699.4-52.3l5.6 2 17-0.8c-2.1-197-156.1-356.4-345.1-356.4-188.8 0-342.7 159.2-345.1 355.9 3.8-0.7 7.9-1 11.9-0.8 3.6 0.2 7.4-0.3 10.8-0.8 6.5-179.2 148.6-323 322.4-323 174.1-0.2 316.5 144.2 322.5 323.9z" fill="#1B81FC" p-id="2252"></path><path d="M758.7 560h105.1c59.4 0 107.5 48.1 107.5 107.5v89.2c0 59.4-48.1 107.5-107.5 107.5h-65.5c-39.6 0-71.8-32.1-71.8-71.8V592.3c-0.1-17.7 14.3-32.3 32.2-32.3zM269.4 563.3H163.7c-59.4 0-107.5 48.1-107.5 107.5v85.9c0 59.4 48.1 107.5 107.5 107.5h66.1c39.6 0 71.8-32.1 71.8-71.8V595.5c0-17.6-14.4-32.2-32.2-32.2z" fill="#CBE4FE" p-id="2253"></path><path d="M825.1 527.3h24.4c59.4 0 107.5 48.1 107.5 107.5v85.9c0 59.4-48.1 107.5-107.5 107.5h-24.2c-17.8 0-32.4-14.6-32.4-32.4V559.5c0-17.8 14.4-32.2 32.2-32.2z" fill="#CBE4FE" p-id="2254"></path><path d="M849.5 844.8h-24.2c-26.8 0-48.8-21.9-48.8-48.8V559.5c0-26.8 21.8-48.6 48.6-48.6h24.4c68.4 0 123.9 55.6 123.9 123.9v85.9c0 68.4-55.5 124.1-123.9 124.1z m-24.4-301.1c-8.7 0-15.9 7.2-15.9 15.9V796c0 8.8 7.2 16 16 16h24.2c50.2 0 91.1-40.9 91.1-91.1V635c0-50.2-40.9-91.1-91.1-91.1H825v-0.2z" fill="#1B81FC" p-id="2255"></path><path d="M343.7 232.9l-16.2-28.5c55.3-31.6 117.5-50.4 181-50.4 63 0 126.2 18.5 181.1 49.6l-16.2 28.5c-50.1-28.3-106.9-43.4-164.3-43.4-57.6 0-114.8 15.3-165.4 44.2z" fill="#CBE4FE" p-id="2256"></path><path d="M745.8 829.4c-10.3 0-18.7-8.3-18.7-18.7V550.4c0-10.3 8.3-18.7 18.7-18.7 10.3 0 18.7 8.3 18.7 18.7v260.3c-0.1 10.3-8.4 18.7-18.7 18.7z" fill="#1B81FC" p-id="2257"></path><path d="M203.8 526.7h-24.4c-59.4 0-107.5 48.1-107.5 107.5v85.9c0 59.4 48.1 107.5 107.5 107.5h24.2c17.8 0 32.4-14.6 32.4-32.4V558.9c0-17.8-14.4-32.2-32.2-32.2z" fill="#CBE4FE" p-id="2258"></path><path d="M203.6 844.1h-24.2c-68.4 0-123.9-55.6-123.9-123.9v-85.9c0-68.4 55.6-123.9 123.9-123.9h24.4c26.8 0 48.6 21.8 48.6 48.6v236.5c0 26.7-21.8 48.6-48.8 48.6zM179.4 543c-50.2 0-91.1 40.9-91.1 91.1V720c0 50.2 40.9 91.1 91.1 91.1h24.2c8.8 0 16-7.2 16-16V558.9c0-8.7-7.2-15.9-15.9-15.9h-24.3z" fill="#1B81FC" p-id="2259"></path><path d="M309.156 199.842l27.769-17.265 31.363 50.442-27.769 17.266z" fill="#1B81FC" p-id="2260"></path><path d="M661.407 238.345l31.363-50.443 27.77 17.266-31.364 50.442z" fill="#1B81FC" p-id="2261"></path><path d="M283.1 828.7c10.3 0 18.7-8.3 18.7-18.7V549.7c0-10.3-8.3-18.7-18.7-18.7-10.3 0-18.7 8.3-18.7 18.7V810c0.1 10.4 8.4 18.7 18.7 18.7z" fill="#1B81FC" p-id="2262"></path></svg>